<svg width="236" height="85" viewBox="0 0 236 85" fill="none" xmlns="http://www.w3.org/2000/svg">
<rect width="236" height="85" rx="22" fill="white"/>
<path d="M25.0469 32.1406C25.0469 31.8073 25.026 31.5417 24.9844 31.3438C24.9531 31.1458 24.875 30.9896 24.75 30.875C24.625 30.7604 24.4479 30.6823 24.2188 30.6406C23.9896 30.599 23.6875 30.5677 23.3125 30.5469V30.1875H28.6094V30.5469C28.2344 30.5573 27.9323 30.5885 27.7031 30.6406C27.474 30.6823 27.2969 30.7604 27.1719 30.875C27.0469 30.9896 26.9635 31.151 26.9219 31.3594C26.8802 31.5573 26.8594 31.8177 26.8594 32.1406V40.0781C26.8594 40.401 26.8802 40.6667 26.9219 40.875C26.974 41.0729 27.0625 41.2292 27.1875 41.3438C27.3125 41.4583 27.4896 41.5417 27.7188 41.5938C27.9479 41.6354 28.2448 41.6615 28.6094 41.6719V42H23.3125V41.6719C23.6875 41.6615 23.9896 41.6354 24.2188 41.5938C24.4479 41.5417 24.6198 41.4583 24.7344 41.3438C24.8594 41.2292 24.9427 41.0729 24.9844 40.875C25.026 40.6771 25.0469 40.4115 25.0469 40.0781V32.1406ZM31.6719 35.2656C31.7656 35.0469 31.8958 34.8438 32.0625 34.6562C32.2292 34.4688 32.4219 34.3073 32.6406 34.1719C32.8594 34.0365 33.099 33.9323 33.3594 33.8594C33.6198 33.7865 33.8854 33.75 34.1562 33.75C34.6042 33.75 35.0156 33.8542 35.3906 34.0625C35.776 34.2604 36.1094 34.5365 36.3906 34.8906C36.6719 35.2344 36.8906 35.6458 37.0469 36.125C37.2135 36.6042 37.2969 37.1198 37.2969 37.6719C37.2969 38.3177 37.1875 38.9167 36.9688 39.4688C36.7604 40.0104 36.4688 40.4844 36.0938 40.8906C35.7188 41.2865 35.276 41.599 34.7656 41.8281C34.2656 42.0573 33.7188 42.1719 33.125 42.1719C32.7604 42.1719 32.401 42.1354 32.0469 42.0625C31.6927 42 31.375 41.9167 31.0938 41.8125C30.8229 41.7083 30.599 41.5885 30.4219 41.4531C30.2552 41.3177 30.1719 41.1771 30.1719 41.0312V31.7812C30.1719 31.4062 30.1146 31.1615 30 31.0469C29.8958 30.9219 29.6667 30.8594 29.3125 30.8594C29.25 30.8594 29.1927 30.8646 29.1406 30.875C29.099 30.875 29.0521 30.8802 29 30.8906V30.5938L29.5312 30.4688C29.9479 30.375 30.3021 30.2812 30.5938 30.1875C30.8854 30.0833 31.2188 29.9583 31.5938 29.8125L31.6719 29.8594V35.2656ZM31.6719 40.7656C31.6719 40.8802 31.7188 40.9896 31.8125 41.0938C31.9062 41.1875 32.0312 41.276 32.1875 41.3594C32.3542 41.4323 32.5417 41.4948 32.75 41.5469C32.9583 41.5885 33.1771 41.6094 33.4062 41.6094C34.1458 41.6094 34.7135 41.3385 35.1094 40.7969C35.5156 40.2552 35.7188 39.4896 35.7188 38.5C35.7188 38.1667 35.6927 37.8438 35.6406 37.5312C35.599 37.2083 35.5312 36.9062 35.4375 36.625C35.3542 36.3438 35.25 36.0938 35.125 35.875C35 35.6562 34.8646 35.4792 34.7188 35.3438C34.5417 35.1771 34.3438 35.0625 34.125 35C33.9062 34.9271 33.6771 34.8906 33.4375 34.8906C33.2083 34.8906 32.9844 34.9271 32.7656 35C32.5573 35.0729 32.3698 35.1719 32.2031 35.2969C32.0469 35.4115 31.9167 35.5521 31.8125 35.7188C31.7188 35.875 31.6719 36.0417 31.6719 36.2188V40.7656ZM38 34.7812C38.2604 34.6875 38.5 34.6042 38.7188 34.5312C38.9375 34.4479 39.1458 34.3698 39.3438 34.2969C39.5521 34.2135 39.7552 34.1354 39.9531 34.0625C40.1615 33.9792 40.3854 33.8906 40.625 33.7969L40.7344 33.8281V35.4688C40.9531 35.1458 41.151 34.8802 41.3281 34.6719C41.5052 34.4531 41.6771 34.2812 41.8438 34.1562C42.0104 34.0208 42.1719 33.9271 42.3281 33.875C42.4948 33.8229 42.6719 33.7969 42.8594 33.7969C43.1615 33.7969 43.401 33.8854 43.5781 34.0625C43.7552 34.2292 43.8438 34.4531 43.8438 34.7344C43.8438 34.9948 43.7812 35.1979 43.6562 35.3438C43.5312 35.4792 43.3646 35.5469 43.1562 35.5469C43.0417 35.5469 42.9271 35.526 42.8125 35.4844C42.7083 35.4323 42.5833 35.3333 42.4375 35.1875C42.3438 35.1042 42.2552 35.0417 42.1719 35C42.0885 34.9583 42.0208 34.9375 41.9688 34.9375C41.8438 34.9375 41.7083 34.9896 41.5625 35.0938C41.4271 35.1875 41.2969 35.3073 41.1719 35.4531C41.0469 35.599 40.9427 35.7552 40.8594 35.9219C40.776 36.0885 40.7344 36.2448 40.7344 36.3906V40.4062C40.7344 40.6562 40.7552 40.8646 40.7969 41.0312C40.8385 41.1979 40.9167 41.3333 41.0312 41.4375C41.1458 41.5312 41.3021 41.6042 41.5 41.6562C41.6979 41.7083 41.9479 41.7396 42.25 41.75V42H37.9531V41.75C38.2344 41.6979 38.4583 41.6458 38.625 41.5938C38.8021 41.5312 38.9323 41.4583 39.0156 41.375C39.1094 41.2917 39.1667 41.1823 39.1875 41.0469C39.2188 40.901 39.2344 40.7188 39.2344 40.5V36.0469C39.2344 35.651 39.1875 35.375 39.0938 35.2188C39 35.0521 38.8438 34.9688 38.625 34.9688C38.5104 34.9688 38.4062 34.974 38.3125 34.9844C38.2292 34.9948 38.125 35.0156 38 35.0469V34.7812ZM48.2812 33.7969C48.8542 33.7969 49.3802 33.8958 49.8594 34.0938C50.3385 34.2917 50.75 34.5729 51.0938 34.9375C51.4479 35.2917 51.724 35.7135 51.9219 36.2031C52.1198 36.6927 52.2188 37.2344 52.2188 37.8281C52.2188 38.4531 52.1146 39.0312 51.9062 39.5625C51.7083 40.0833 51.4323 40.5417 51.0781 40.9375C50.724 41.3229 50.3021 41.625 49.8125 41.8438C49.3333 42.0625 48.8125 42.1719 48.25 42.1719C47.6875 42.1719 47.1667 42.0677 46.6875 41.8594C46.2083 41.651 45.7969 41.3594 45.4531 40.9844C45.1094 40.6094 44.8385 40.1667 44.6406 39.6562C44.4427 39.1458 44.3438 38.5885 44.3438 37.9844C44.3438 37.3698 44.4375 36.8073 44.625 36.2969C44.8229 35.776 45.0938 35.3333 45.4375 34.9688C45.7812 34.5938 46.1927 34.3073 46.6719 34.1094C47.1615 33.901 47.6979 33.7969 48.2812 33.7969ZM48.0156 34.2969C47.3906 34.2969 46.8906 34.5521 46.5156 35.0625C46.1406 35.5729 45.9531 36.25 45.9531 37.0938C45.9531 37.7292 46.0208 38.349 46.1562 38.9531C46.2917 39.5469 46.4844 40.0781 46.7344 40.5469C46.9219 40.9115 47.1719 41.1927 47.4844 41.3906C47.7969 41.5885 48.1354 41.6875 48.5 41.6875C49.1562 41.6875 49.6667 41.401 50.0312 40.8281C50.4062 40.2448 50.5938 39.4479 50.5938 38.4375C50.5938 37.6771 50.4844 36.9688 50.2656 36.3125C50.0469 35.6562 49.75 35.1615 49.375 34.8281C49.1771 34.6406 48.9688 34.5052 48.75 34.4219C48.5312 34.3385 48.2865 34.2969 48.0156 34.2969ZM52.875 30.5938L53.4062 30.4688C53.6771 30.3958 53.9115 30.3333 54.1094 30.2812C54.3073 30.2188 54.4896 30.1615 54.6562 30.1094C54.8333 30.0573 54.9948 30.0104 55.1406 29.9688C55.2969 29.9167 55.4635 29.8646 55.6406 29.8125L55.7031 29.8594V37.3594L58.1562 35.1719C58.4271 34.9219 58.5625 34.7083 58.5625 34.5312C58.5625 34.4271 58.5 34.3542 58.375 34.3125C58.25 34.2708 58.0156 34.2396 57.6719 34.2188V33.9688H61.3125V34.25C61.0312 34.2396 60.776 34.2604 60.5469 34.3125C60.3177 34.3542 60.0677 34.4531 59.7969 34.6094C59.526 34.7656 59.2083 34.9948 58.8438 35.2969C58.4792 35.5885 58.0156 35.9844 57.4531 36.4844L56.9375 36.9531L59.6875 40.4375C60.0521 40.8958 60.3854 41.224 60.6875 41.4219C61 41.6094 61.3542 41.7188 61.75 41.75V42H57.875V41.75H58.2031C58.3177 41.75 58.4062 41.724 58.4688 41.6719C58.5417 41.6198 58.5781 41.5521 58.5781 41.4688C58.5781 41.4167 58.5625 41.3646 58.5312 41.3125C58.5104 41.25 58.4583 41.1771 58.375 41.0938C58.3125 41.0104 58.276 40.9583 58.2656 40.9375L58.2031 40.8594L55.7031 37.5312V40.8125C55.7031 41.1146 55.776 41.3385 55.9219 41.4844C56.0781 41.6198 56.3333 41.6979 56.6875 41.7188L57.0469 41.75V42H52.875V41.75C53.1875 41.6979 53.4323 41.651 53.6094 41.6094C53.7969 41.5573 53.9323 41.4948 54.0156 41.4219C54.099 41.3385 54.151 41.2292 54.1719 41.0938C54.1927 40.9583 54.2031 40.776 54.2031 40.5469V31.9375C54.2031 31.5104 54.151 31.224 54.0469 31.0781C53.9427 30.9323 53.7396 30.8594 53.4375 30.8594C53.3542 30.8594 53.2656 30.8646 53.1719 30.875C53.0885 30.875 52.9896 30.8802 52.875 30.8906V30.5938ZM64.4688 40.1875C64.4688 40.4896 64.4844 40.7396 64.5156 40.9375C64.5469 41.125 64.6042 41.276 64.6875 41.3906C64.7708 41.4948 64.8906 41.5729 65.0469 41.625C65.2135 41.6771 65.4271 41.7188 65.6875 41.75V42H61.8281V41.75C62.0885 41.7083 62.2917 41.6615 62.4375 41.6094C62.5938 41.5573 62.7083 41.4792 62.7812 41.375C62.8646 41.2604 62.9167 41.1146 62.9375 40.9375C62.9583 40.75 62.9688 40.5 62.9688 40.1875V31.7812C62.9688 31.5938 62.9583 31.4427 62.9375 31.3281C62.9167 31.2031 62.8698 31.1094 62.7969 31.0469C62.7344 30.974 62.6406 30.9271 62.5156 30.9062C62.401 30.8854 62.25 30.875 62.0625 30.875C61.9583 30.875 61.8854 30.8802 61.8438 30.8906V30.5938L62.3281 30.4688C62.5781 30.3854 62.7969 30.3177 62.9844 30.2656C63.1719 30.2031 63.3438 30.151 63.5 30.1094C63.6562 30.0573 63.8021 30.0104 63.9375 29.9688C64.0729 29.9167 64.2188 29.8646 64.375 29.8125L64.4688 29.875V35.3125C64.8854 34.7604 65.2917 34.3698 65.6875 34.1406C66.0938 33.9115 66.5573 33.7969 67.0781 33.7969C67.8281 33.7969 68.3802 34.0365 68.7344 34.5156C69.0885 34.9948 69.2656 35.7031 69.2656 36.6406V40.1875C69.2656 40.4896 69.276 40.7344 69.2969 40.9219C69.3177 41.099 69.3646 41.2448 69.4375 41.3594C69.5208 41.4635 69.6354 41.5469 69.7812 41.6094C69.9271 41.6615 70.1198 41.7083 70.3594 41.75V42H66.5781V41.75C66.8385 41.7188 67.0469 41.6771 67.2031 41.625C67.3594 41.5729 67.4792 41.4948 67.5625 41.3906C67.6562 41.276 67.7135 41.125 67.7344 40.9375C67.7656 40.7396 67.7812 40.4896 67.7812 40.1875V36.6719C67.7812 35.4115 67.3438 34.7812 66.4688 34.7812C66.1042 34.7812 65.7708 34.8646 65.4688 35.0312C65.1771 35.1875 64.8438 35.474 64.4688 35.8906V40.1875ZM73.7812 33.8438V40.1875C73.7812 40.5104 73.7917 40.7708 73.8125 40.9688C73.8438 41.1562 73.9062 41.3073 74 41.4219C74.0938 41.526 74.224 41.599 74.3906 41.6406C74.5677 41.6823 74.8073 41.7188 75.1094 41.75V42H70.875V41.75C71.1875 41.7292 71.4323 41.6979 71.6094 41.6562C71.7969 41.6042 71.9375 41.526 72.0312 41.4219C72.1354 41.3073 72.2031 41.1562 72.2344 40.9688C72.2656 40.7708 72.2812 40.5104 72.2812 40.1875V36.0469C72.2812 35.651 72.2344 35.375 72.1406 35.2188C72.0573 35.0521 71.9115 34.9688 71.7031 34.9688C71.6198 34.9688 71.5208 34.974 71.4062 34.9844C71.3021 34.9948 71.1927 35.0104 71.0781 35.0312L70.9531 35.0469V34.7812L73.7031 33.7969L73.7812 33.8438ZM72.8906 29.8125C73.1406 29.8125 73.3542 29.9062 73.5312 30.0938C73.7083 30.2708 73.7969 30.4844 73.7969 30.7344C73.7969 30.9948 73.7083 31.2135 73.5312 31.3906C73.3646 31.5573 73.1458 31.6406 72.875 31.6406C72.6146 31.6406 72.401 31.5573 72.2344 31.3906C72.0677 31.2135 71.9844 30.9948 71.9844 30.7344C71.9844 30.4844 72.0729 30.2708 72.25 30.0938C72.4271 29.9062 72.6406 29.8125 72.8906 29.8125ZM75.8906 34.5938C76.1406 34.5312 76.3646 34.4688 76.5625 34.4062C76.7708 34.3438 76.974 34.2812 77.1719 34.2188C77.3698 34.1562 77.5625 34.0938 77.75 34.0312C77.9479 33.9583 78.1615 33.8802 78.3906 33.7969L78.5156 33.8281V35.1719C78.8906 34.8906 79.2083 34.6615 79.4688 34.4844C79.7292 34.2969 79.9583 34.1562 80.1562 34.0625C80.3646 33.9583 80.5521 33.8906 80.7188 33.8594C80.8854 33.8177 81.0677 33.7969 81.2656 33.7969C82.2344 33.7969 82.8646 34.3021 83.1562 35.3125C83.6562 34.7812 84.1354 34.3958 84.5938 34.1562C85.0625 33.9167 85.5573 33.7969 86.0781 33.7969C87.4635 33.7969 88.1562 34.849 88.1562 36.9531V40.6406C88.1562 41.3177 88.4167 41.6719 88.9375 41.7031L89.3906 41.75V42H85.4844V41.75C85.7448 41.7188 85.9479 41.6823 86.0938 41.6406C86.25 41.5885 86.3646 41.5208 86.4375 41.4375C86.5208 41.3438 86.5729 41.2188 86.5938 41.0625C86.625 40.9062 86.6406 40.6979 86.6406 40.4375V36.6875C86.6406 36.3125 86.6198 36 86.5781 35.75C86.5365 35.5 86.4635 35.3021 86.3594 35.1562C86.2552 35 86.1146 34.8906 85.9375 34.8281C85.7708 34.7552 85.5625 34.7188 85.3125 34.7188C84.8958 34.7188 84.5365 34.8073 84.2344 34.9844C83.9323 35.151 83.6458 35.4271 83.375 35.8125V40.3125C83.375 40.5833 83.3906 40.8125 83.4219 41C83.4635 41.1771 83.5312 41.3229 83.625 41.4375C83.7292 41.5417 83.8646 41.6198 84.0312 41.6719C84.1979 41.7135 84.4062 41.7396 84.6562 41.75V42H80.6562V41.75C80.9062 41.7292 81.1094 41.6979 81.2656 41.6562C81.4323 41.6146 81.5573 41.5469 81.6406 41.4531C81.7344 41.3594 81.7969 41.2344 81.8281 41.0781C81.8594 40.9219 81.875 40.7188 81.875 40.4688V36.5938C81.875 35.3438 81.4896 34.7188 80.7188 34.7188C80.3854 34.7188 80.0365 34.7917 79.6719 34.9375C79.3177 35.0833 79.0365 35.2604 78.8281 35.4688C78.6719 35.6458 78.5938 35.75 78.5938 35.7812V40.8125C78.5938 41.1667 78.6719 41.4062 78.8281 41.5312C78.9948 41.6562 79.3177 41.7292 79.7969 41.75V42H75.8438V41.75C76.0938 41.7396 76.2969 41.7135 76.4531 41.6719C76.6198 41.6302 76.75 41.5625 76.8438 41.4688C76.9375 41.375 77 41.25 77.0312 41.0938C77.0729 40.9271 77.0938 40.724 77.0938 40.4844V35.9688C77.0938 35.5312 77.0469 35.2344 76.9531 35.0781C76.8698 34.9115 76.7083 34.8281 76.4688 34.8281C76.3646 34.8281 76.2708 34.8385 76.1875 34.8594C76.1146 34.8698 76.0156 34.8854 75.8906 34.9062V34.5938ZM99.0938 38.7344C99.0938 39.8594 98.8281 40.7292 98.2969 41.3438C97.776 41.9479 97.026 42.25 96.0469 42.25C95.5365 42.25 95.1146 42.1302 94.7812 41.8906C94.4583 41.651 94.2969 41.3385 94.2969 40.9531C94.2969 40.7135 94.3802 40.5104 94.5469 40.3438C94.724 40.1667 94.9323 40.0781 95.1719 40.0781C95.6198 40.0781 95.9271 40.375 96.0938 40.9688C96.1667 41.1979 96.2344 41.3594 96.2969 41.4531C96.3594 41.5469 96.4531 41.5938 96.5781 41.5938C97.026 41.5938 97.25 41.1979 97.25 40.4062V32.1406C97.25 31.8177 97.2292 31.5573 97.1875 31.3594C97.1562 31.1615 97.0833 31.0052 96.9688 30.8906C96.8542 30.776 96.6875 30.6979 96.4688 30.6562C96.25 30.6042 95.9583 30.5677 95.5938 30.5469V30.1875H100.719V30.5469C100.354 30.5677 100.062 30.6042 99.8438 30.6562C99.6354 30.6979 99.474 30.776 99.3594 30.8906C99.2552 31.0052 99.1823 31.1615 99.1406 31.3594C99.1094 31.5573 99.0938 31.8177 99.0938 32.1406V38.7344ZM107.625 40.125C107.625 40.5208 107.661 40.7969 107.734 40.9531C107.807 41.099 107.948 41.1719 108.156 41.1719C108.396 41.1719 108.656 41.0625 108.938 40.8438V41.2969C108.635 41.6302 108.37 41.8594 108.141 41.9844C107.911 42.1094 107.646 42.1719 107.344 42.1719C106.979 42.1719 106.708 42.0729 106.531 41.875C106.365 41.6667 106.26 41.3229 106.219 40.8438C105.677 41.3125 105.203 41.651 104.797 41.8594C104.391 42.0677 103.995 42.1719 103.609 42.1719C103.047 42.1719 102.589 41.9948 102.234 41.6406C101.891 41.2865 101.719 40.8281 101.719 40.2656C101.719 39.9844 101.771 39.7031 101.875 39.4219C101.99 39.1302 102.151 38.8958 102.359 38.7188C102.547 38.5521 102.719 38.4115 102.875 38.2969C103.042 38.1719 103.255 38.0469 103.516 37.9219C103.776 37.7865 104.115 37.6354 104.531 37.4688C104.948 37.3021 105.5 37.0781 106.188 36.7969V35.6562C106.188 35.1667 106.068 34.7969 105.828 34.5469C105.599 34.2969 105.266 34.1719 104.828 34.1719C104.464 34.1719 104.156 34.2604 103.906 34.4375C103.667 34.6042 103.547 34.8073 103.547 35.0469C103.547 35.1406 103.557 35.2604 103.578 35.4062C103.609 35.5521 103.625 35.6719 103.625 35.7656C103.625 35.974 103.542 36.151 103.375 36.2969C103.219 36.4427 103.036 36.5156 102.828 36.5156C102.62 36.5156 102.438 36.4427 102.281 36.2969C102.135 36.1406 102.062 35.9583 102.062 35.75C102.062 35.5208 102.125 35.2865 102.25 35.0469C102.385 34.8073 102.568 34.5938 102.797 34.4062C103.036 34.1979 103.354 34.0365 103.75 33.9219C104.156 33.8073 104.594 33.75 105.062 33.75C105.604 33.75 106.057 33.8438 106.422 34.0312C106.797 34.2083 107.083 34.4583 107.281 34.7812C107.406 34.9896 107.495 35.2344 107.547 35.5156C107.599 35.7865 107.625 36.1562 107.625 36.625V40.125ZM106.188 37.2344C105.646 37.4323 105.182 37.625 104.797 37.8125C104.422 37.9896 104.115 38.1771 103.875 38.375C103.646 38.5625 103.479 38.7656 103.375 38.9844C103.271 39.2031 103.219 39.4427 103.219 39.7031V39.7812C103.219 39.9688 103.25 40.151 103.312 40.3281C103.375 40.4948 103.458 40.6406 103.562 40.7656C103.677 40.8906 103.807 40.9896 103.953 41.0625C104.099 41.1354 104.25 41.1719 104.406 41.1719C104.594 41.1719 104.802 41.1354 105.031 41.0625C105.271 40.9792 105.495 40.8802 105.703 40.7656C105.911 40.651 106.042 40.5312 106.094 40.4062C106.156 40.2812 106.188 40.0833 106.188 39.8125V37.2344ZM109.312 30.5938C109.625 30.5208 109.901 30.4583 110.141 30.4062C110.391 30.3438 110.625 30.2812 110.844 30.2188C111.073 30.1562 111.292 30.0938 111.5 30.0312C111.708 29.9688 111.927 29.8958 112.156 29.8125L112.234 29.8594V40.5C112.234 40.75 112.25 40.9531 112.281 41.1094C112.312 41.2552 112.375 41.375 112.469 41.4688C112.562 41.5521 112.693 41.6146 112.859 41.6562C113.036 41.6979 113.266 41.7292 113.547 41.75V42H109.359V41.75C109.641 41.7188 109.87 41.6823 110.047 41.6406C110.224 41.5885 110.365 41.5156 110.469 41.4219C110.573 41.3177 110.641 41.1875 110.672 41.0312C110.714 40.875 110.734 40.6771 110.734 40.4375V31.9375C110.734 31.5208 110.677 31.2396 110.562 31.0938C110.458 30.9375 110.266 30.8594 109.984 30.8594C109.901 30.8594 109.807 30.8646 109.703 30.875C109.609 30.875 109.516 30.8802 109.422 30.8906H109.312V30.5938ZM120.516 40.125C120.516 40.5208 120.552 40.7969 120.625 40.9531C120.698 41.099 120.839 41.1719 121.047 41.1719C121.286 41.1719 121.547 41.0625 121.828 40.8438V41.2969C121.526 41.6302 121.26 41.8594 121.031 41.9844C120.802 42.1094 120.536 42.1719 120.234 42.1719C119.87 42.1719 119.599 42.0729 119.422 41.875C119.255 41.6667 119.151 41.3229 119.109 40.8438C118.568 41.3125 118.094 41.651 117.688 41.8594C117.281 42.0677 116.885 42.1719 116.5 42.1719C115.938 42.1719 115.479 41.9948 115.125 41.6406C114.781 41.2865 114.609 40.8281 114.609 40.2656C114.609 39.9844 114.661 39.7031 114.766 39.4219C114.88 39.1302 115.042 38.8958 115.25 38.7188C115.438 38.5521 115.609 38.4115 115.766 38.2969C115.932 38.1719 116.146 38.0469 116.406 37.9219C116.667 37.7865 117.005 37.6354 117.422 37.4688C117.839 37.3021 118.391 37.0781 119.078 36.7969V35.6562C119.078 35.1667 118.958 34.7969 118.719 34.5469C118.49 34.2969 118.156 34.1719 117.719 34.1719C117.354 34.1719 117.047 34.2604 116.797 34.4375C116.557 34.6042 116.438 34.8073 116.438 35.0469C116.438 35.1406 116.448 35.2604 116.469 35.4062C116.5 35.5521 116.516 35.6719 116.516 35.7656C116.516 35.974 116.432 36.151 116.266 36.2969C116.109 36.4427 115.927 36.5156 115.719 36.5156C115.51 36.5156 115.328 36.4427 115.172 36.2969C115.026 36.1406 114.953 35.9583 114.953 35.75C114.953 35.5208 115.016 35.2865 115.141 35.0469C115.276 34.8073 115.458 34.5938 115.688 34.4062C115.927 34.1979 116.245 34.0365 116.641 33.9219C117.047 33.8073 117.484 33.75 117.953 33.75C118.495 33.75 118.948 33.8438 119.312 34.0312C119.688 34.2083 119.974 34.4583 120.172 34.7812C120.297 34.9896 120.385 35.2344 120.438 35.5156C120.49 35.7865 120.516 36.1562 120.516 36.625V40.125ZM119.078 37.2344C118.536 37.4323 118.073 37.625 117.688 37.8125C117.312 37.9896 117.005 38.1771 116.766 38.375C116.536 38.5625 116.37 38.7656 116.266 38.9844C116.161 39.2031 116.109 39.4427 116.109 39.7031V39.7812C116.109 39.9688 116.141 40.151 116.203 40.3281C116.266 40.4948 116.349 40.6406 116.453 40.7656C116.568 40.8906 116.698 40.9896 116.844 41.0625C116.99 41.1354 117.141 41.1719 117.297 41.1719C117.484 41.1719 117.693 41.1354 117.922 41.0625C118.161 40.9792 118.385 40.8802 118.594 40.7656C118.802 40.651 118.932 40.5312 118.984 40.4062C119.047 40.2812 119.078 40.0833 119.078 39.8125V37.2344ZM122.203 30.5938C122.516 30.5208 122.792 30.4583 123.031 30.4062C123.281 30.3438 123.516 30.2812 123.734 30.2188C123.964 30.1562 124.182 30.0938 124.391 30.0312C124.599 29.9688 124.818 29.8958 125.047 29.8125L125.125 29.8594V40.5C125.125 40.75 125.141 40.9531 125.172 41.1094C125.203 41.2552 125.266 41.375 125.359 41.4688C125.453 41.5521 125.583 41.6146 125.75 41.6562C125.927 41.6979 126.156 41.7292 126.438 41.75V42H122.25V41.75C122.531 41.7188 122.76 41.6823 122.938 41.6406C123.115 41.5885 123.255 41.5156 123.359 41.4219C123.464 41.3177 123.531 41.1875 123.562 41.0312C123.604 40.875 123.625 40.6771 123.625 40.4375V31.9375C123.625 31.5208 123.568 31.2396 123.453 31.0938C123.349 30.9375 123.156 30.8594 122.875 30.8594C122.792 30.8594 122.698 30.8646 122.594 30.875C122.5 30.875 122.406 30.8802 122.312 30.8906H122.203V30.5938ZM131.297 33.7969C131.87 33.7969 132.396 33.8958 132.875 34.0938C133.354 34.2917 133.766 34.5729 134.109 34.9375C134.464 35.2917 134.74 35.7135 134.938 36.2031C135.135 36.6927 135.234 37.2344 135.234 37.8281C135.234 38.4531 135.13 39.0312 134.922 39.5625C134.724 40.0833 134.448 40.5417 134.094 40.9375C133.74 41.3229 133.318 41.625 132.828 41.8438C132.349 42.0625 131.828 42.1719 131.266 42.1719C130.703 42.1719 130.182 42.0677 129.703 41.8594C129.224 41.651 128.812 41.3594 128.469 40.9844C128.125 40.6094 127.854 40.1667 127.656 39.6562C127.458 39.1458 127.359 38.5885 127.359 37.9844C127.359 37.3698 127.453 36.8073 127.641 36.2969C127.839 35.776 128.109 35.3333 128.453 34.9688C128.797 34.5938 129.208 34.3073 129.688 34.1094C130.177 33.901 130.714 33.7969 131.297 33.7969ZM131.031 34.2969C130.406 34.2969 129.906 34.5521 129.531 35.0625C129.156 35.5729 128.969 36.25 128.969 37.0938C128.969 37.7292 129.036 38.349 129.172 38.9531C129.307 39.5469 129.5 40.0781 129.75 40.5469C129.938 40.9115 130.188 41.1927 130.5 41.3906C130.812 41.5885 131.151 41.6875 131.516 41.6875C132.172 41.6875 132.682 41.401 133.047 40.8281C133.422 40.2448 133.609 39.4479 133.609 38.4375C133.609 37.6771 133.5 36.9688 133.281 36.3125C133.062 35.6562 132.766 35.1615 132.391 34.8281C132.193 34.6406 131.984 34.5052 131.766 34.4219C131.547 34.3385 131.302 34.2969 131.031 34.2969ZM144.266 34.25C144.13 34.2604 144.016 34.2812 143.922 34.3125C143.839 34.3438 143.755 34.4062 143.672 34.5C143.599 34.5938 143.516 34.7344 143.422 34.9219C143.339 35.099 143.234 35.3385 143.109 35.6406L140.828 41.375C140.693 41.6979 140.589 41.9219 140.516 42.0469C140.443 42.1823 140.38 42.25 140.328 42.25C140.276 42.25 140.219 42.2135 140.156 42.1406C140.104 42.0781 140.052 41.9583 140 41.7812C139.979 41.7396 139.958 41.6927 139.938 41.6406C139.917 41.5781 139.891 41.5 139.859 41.4062L137.719 36.2969C137.51 35.8385 137.344 35.474 137.219 35.2031C137.094 34.9323 136.974 34.7292 136.859 34.5938C136.755 34.4583 136.646 34.3698 136.531 34.3281C136.417 34.2865 136.271 34.2604 136.094 34.25V33.9688H139.578V34.25C139.286 34.2708 139.078 34.3177 138.953 34.3906C138.839 34.4635 138.781 34.5729 138.781 34.7188C138.781 34.8125 138.792 34.9219 138.812 35.0469C138.844 35.1615 138.885 35.2812 138.938 35.4062L140.75 39.9688L142.516 35.3438C142.557 35.2604 142.583 35.1719 142.594 35.0781C142.604 34.9844 142.609 34.8958 142.609 34.8125C142.609 34.4792 142.339 34.2917 141.797 34.25V33.9688H144.266V34.25Z" fill="black"/>
<path d="M32.4688 61.5H29.0586V61.2539C29.1758 61.2539 29.2734 61.2539 29.3516 61.2539C29.4297 61.2461 29.4922 61.2383 29.5391 61.2305C29.5938 61.2148 29.6406 61.2031 29.6797 61.1953C29.7188 61.1797 29.7578 61.1602 29.7969 61.1367C29.8594 61.0977 29.9062 61.0508 29.9375 60.9961C29.9766 60.9336 29.9961 60.8711 29.9961 60.8086C29.9961 60.5898 29.9102 60.2852 29.7383 59.8945L29.1758 58.6172H25.6836L25.0625 60.1758C25.0312 60.2617 25.0039 60.3516 24.9805 60.4453C24.9648 60.5312 24.957 60.6172 24.957 60.7031C24.957 60.8828 25.0273 61.0195 25.168 61.1133C25.3086 61.207 25.543 61.2539 25.8711 61.2539V61.5H23.2109V61.2539C23.375 61.2461 23.5156 61.2188 23.6328 61.1719C23.75 61.125 23.8672 61.0273 23.9844 60.8789C24.1016 60.7227 24.2266 60.5039 24.3594 60.2227C24.5 59.9336 24.6758 59.543 24.8867 59.0508L27.6641 52.4883H27.9219L31.2617 60.082C31.3711 60.332 31.4648 60.5312 31.543 60.6797C31.6289 60.8281 31.7148 60.9453 31.8008 61.0312C31.8867 61.1094 31.9805 61.1641 32.082 61.1953C32.1914 61.2266 32.3203 61.2461 32.4688 61.2539V61.5ZM29 58.0781L27.4531 54.3867L25.9062 58.0781H29ZM38.9727 61.0312C38.6289 61.1172 38.3203 61.2031 38.0469 61.2891C37.7734 61.375 37.4648 61.4844 37.1211 61.6172L37.0859 61.5938V60.4805L36.5 61.0547C36.3203 61.2422 36.1094 61.3867 35.8672 61.4883C35.625 61.582 35.3789 61.6289 35.1289 61.6289C34.6367 61.6289 34.2422 61.4727 33.9453 61.1602C33.6562 60.8477 33.5117 60.4258 33.5117 59.8945V56.543C33.5117 56.2305 33.4531 56.0156 33.3359 55.8984C33.2266 55.7812 33.0078 55.7109 32.6797 55.6875V55.4531H34.625V59.8477C34.625 60.1289 34.7188 60.3711 34.9062 60.5742C35.0938 60.7695 35.3203 60.8672 35.5859 60.8672C35.7891 60.8672 35.9922 60.8281 36.1953 60.75C36.4062 60.6641 36.6016 60.5391 36.7812 60.375C36.8672 60.3125 36.9297 60.2305 36.9688 60.1289C37.0078 60.0195 37.0273 59.875 37.0273 59.6953V56.5312C37.0273 56.3672 37.0117 56.2344 36.9805 56.1328C36.957 56.0234 36.9062 55.9375 36.8281 55.875C36.7578 55.8125 36.6562 55.7695 36.5234 55.7461C36.3906 55.7148 36.2227 55.6953 36.0195 55.6875V55.4531H38.1406V60.0703C38.1406 60.3828 38.1914 60.5898 38.293 60.6914C38.3945 60.7852 38.5977 60.832 38.9023 60.832H38.9727V61.0312ZM42.6641 55.8984H41.3047V59.7422C41.3047 60.1719 41.3594 60.4805 41.4688 60.668C41.5781 60.8477 41.7539 60.9375 41.9961 60.9375C42.1523 60.9375 42.2891 60.9062 42.4062 60.8438C42.5234 60.7734 42.6602 60.6484 42.8164 60.4688L42.9805 60.6328C42.5586 61.2969 42.0195 61.6289 41.3633 61.6289C40.5742 61.6289 40.1797 61.0625 40.1797 59.9297V55.8984H39.4766C39.4453 55.8906 39.4297 55.8633 39.4297 55.8164C39.4297 55.7383 39.5039 55.6523 39.6523 55.5586C40.0039 55.3555 40.4375 54.8789 40.9531 54.1289C40.9922 54.0664 41.0352 54.0078 41.082 53.9531C41.1367 53.8906 41.1836 53.8242 41.2227 53.7539C41.2539 53.7539 41.2734 53.7656 41.2812 53.7891C41.2969 53.8125 41.3047 53.8594 41.3047 53.9297V55.4766H42.6641V55.8984ZM45.0781 60.1406C45.0781 60.3672 45.0898 60.5547 45.1133 60.7031C45.1367 60.8438 45.1797 60.957 45.2422 61.043C45.3047 61.1211 45.3945 61.1797 45.5117 61.2188C45.6367 61.2578 45.7969 61.2891 45.9922 61.3125V61.5H43.0977V61.3125C43.293 61.2812 43.4453 61.2461 43.5547 61.207C43.6719 61.168 43.7578 61.1094 43.8125 61.0312C43.875 60.9453 43.9141 60.8359 43.9297 60.7031C43.9453 60.5625 43.9531 60.375 43.9531 60.1406V53.8359C43.9531 53.6953 43.9453 53.582 43.9297 53.4961C43.9141 53.4023 43.8789 53.332 43.8242 53.2852C43.7773 53.2305 43.707 53.1953 43.6133 53.1797C43.5273 53.1641 43.4141 53.1562 43.2734 53.1562C43.1953 53.1562 43.1406 53.1602 43.1094 53.168V52.9453L43.4727 52.8516C43.6602 52.7891 43.8242 52.7383 43.9648 52.6992C44.1055 52.6523 44.2344 52.6133 44.3516 52.582C44.4688 52.543 44.5781 52.5078 44.6797 52.4766C44.7812 52.4375 44.8906 52.3984 45.0078 52.3594L45.0781 52.4062V56.4844C45.3906 56.0703 45.6953 55.7773 45.9922 55.6055C46.2969 55.4336 46.6445 55.3477 47.0352 55.3477C47.5977 55.3477 48.0117 55.5273 48.2773 55.8867C48.543 56.2461 48.6758 56.7773 48.6758 57.4805V60.1406C48.6758 60.3672 48.6836 60.5508 48.6992 60.6914C48.7148 60.8242 48.75 60.9336 48.8047 61.0195C48.8672 61.0977 48.9531 61.1602 49.0625 61.207C49.1719 61.2461 49.3164 61.2812 49.4961 61.3125V61.5H46.6602V61.3125C46.8555 61.2891 47.0117 61.2578 47.1289 61.2188C47.2461 61.1797 47.3359 61.1211 47.3984 61.043C47.4688 60.957 47.5117 60.8438 47.5273 60.7031C47.5508 60.5547 47.5625 60.3672 47.5625 60.1406V57.5039C47.5625 56.5586 47.2344 56.0859 46.5781 56.0859C46.3047 56.0859 46.0547 56.1484 45.8281 56.2734C45.6094 56.3906 45.3594 56.6055 45.0781 56.918V60.1406ZM53.0117 55.3477C53.4414 55.3477 53.8359 55.4219 54.1953 55.5703C54.5547 55.7188 54.8633 55.9297 55.1211 56.2031C55.3867 56.4688 55.5938 56.7852 55.7422 57.1523C55.8906 57.5195 55.9648 57.9258 55.9648 58.3711C55.9648 58.8398 55.8867 59.2734 55.7305 59.6719C55.582 60.0625 55.375 60.4062 55.1094 60.7031C54.8438 60.9922 54.5273 61.2188 54.1602 61.3828C53.8008 61.5469 53.4102 61.6289 52.9883 61.6289C52.5664 61.6289 52.1758 61.5508 51.8164 61.3945C51.457 61.2383 51.1484 61.0195 50.8906 60.7383C50.6328 60.457 50.4297 60.125 50.2812 59.7422C50.1328 59.3594 50.0586 58.9414 50.0586 58.4883C50.0586 58.0273 50.1289 57.6055 50.2695 57.2227C50.418 56.832 50.6211 56.5 50.8789 56.2266C51.1367 55.9453 51.4453 55.7305 51.8047 55.582C52.1719 55.4258 52.5742 55.3477 53.0117 55.3477ZM52.8125 55.7227C52.3438 55.7227 51.9688 55.9141 51.6875 56.2969C51.4062 56.6797 51.2656 57.1875 51.2656 57.8203C51.2656 58.2969 51.3164 58.7617 51.418 59.2148C51.5195 59.6602 51.6641 60.0586 51.8516 60.4102C51.9922 60.6836 52.1797 60.8945 52.4141 61.043C52.6484 61.1914 52.9023 61.2656 53.1758 61.2656C53.668 61.2656 54.0508 61.0508 54.3242 60.6211C54.6055 60.1836 54.7461 59.5859 54.7461 58.8281C54.7461 58.2578 54.6641 57.7266 54.5 57.2344C54.3359 56.7422 54.1133 56.3711 53.832 56.1211C53.6836 55.9805 53.5273 55.8789 53.3633 55.8164C53.1992 55.7539 53.0156 55.7227 52.8125 55.7227ZM56.457 56.0859C56.6523 56.0156 56.832 55.9531 56.9961 55.8984C57.1602 55.8359 57.3164 55.7773 57.4648 55.7227C57.6211 55.6602 57.7734 55.6016 57.9219 55.5469C58.0781 55.4844 58.2461 55.418 58.4258 55.3477L58.5078 55.3711V56.6016C58.6719 56.3594 58.8203 56.1602 58.9531 56.0039C59.0859 55.8398 59.2148 55.7109 59.3398 55.6172C59.4648 55.5156 59.5859 55.4453 59.7031 55.4062C59.8281 55.3672 59.9609 55.3477 60.1016 55.3477C60.3281 55.3477 60.5078 55.4141 60.6406 55.5469C60.7734 55.6719 60.8398 55.8398 60.8398 56.0508C60.8398 56.2461 60.793 56.3984 60.6992 56.5078C60.6055 56.6094 60.4805 56.6602 60.3242 56.6602C60.2383 56.6602 60.1523 56.6445 60.0664 56.6133C59.9883 56.5742 59.8945 56.5 59.7852 56.3906C59.7148 56.3281 59.6484 56.2812 59.5859 56.25C59.5234 56.2188 59.4727 56.2031 59.4336 56.2031C59.3398 56.2031 59.2383 56.2422 59.1289 56.3203C59.0273 56.3906 58.9297 56.4805 58.8359 56.5898C58.7422 56.6992 58.6641 56.8164 58.6016 56.9414C58.5391 57.0664 58.5078 57.1836 58.5078 57.293V60.3047C58.5078 60.4922 58.5234 60.6484 58.5547 60.7734C58.5859 60.8984 58.6445 61 58.7305 61.0781C58.8164 61.1484 58.9336 61.2031 59.082 61.2422C59.2305 61.2812 59.418 61.3047 59.6445 61.3125V61.5H56.4219V61.3125C56.6328 61.2734 56.8008 61.2344 56.9258 61.1953C57.0586 61.1484 57.1562 61.0938 57.2188 61.0312C57.2891 60.9688 57.332 60.8867 57.3477 60.7852C57.3711 60.6758 57.3828 60.5391 57.3828 60.375V57.0352C57.3828 56.7383 57.3477 56.5312 57.2773 56.4141C57.207 56.2891 57.0898 56.2266 56.9258 56.2266C56.8398 56.2266 56.7617 56.2305 56.6914 56.2383C56.6289 56.2461 56.5508 56.2617 56.457 56.2852V56.0859Z" fill="#787878"/>
</svg>
